name Walk8.mot
datacolumns 19
datarows 15
range 2.51400000 2.52800000
endheader

                time	   L_ground_force_vx	   L_ground_force_vy	   L_ground_force_vz	   L_ground_force_px	   L_ground_force_py	   L_ground_force_pz	   R_ground_force_vx	   R_ground_force_vy	   R_ground_force_vz	   R_ground_force_px	   R_ground_force_py	   R_ground_force_pz	   L_ground_torque_x	   L_ground_torque_y	   L_ground_torque_z	   R_ground_torque_x	   R_ground_torque_y	   R_ground_torque_z	
          2.51400000	          0.00000000	          0.00000000	          0.00000000	          0.00000000	          0.00000000	          0.00000000	         18.02272270	        744.48857345	         66.27906810	         -0.41655785	          0.00000000	         -0.09595670	          0.00000000	          0.00000000	          0.00000000	          0.00000000	          1.21036535	          0.00000000	
          2.51500000	          0.00000000	          0.00000000	          0.00000000	          0.00000000	          0.00000000	          0.00000000	         18.40009232	        745.09192683	         66.55652743	         -0.41617302	          0.00000000	         -0.09587663	          0.00000000	          0.00000000	          0.00000000	          0.00000000	          1.23807227	          0.00000000	
          2.51600000	          0.00000000	          0.00000000	          0.00000000	          0.00000000	          0.00000000	          0.00000000	         18.74235572	        745.69312505	         66.83128814	         -0.41578923	          0.00000000	         -0.09586095	          0.00000000	          0.00000000	          0.00000000	          0.00000000	          1.25941492	          0.00000000	
          2.51700000	          0.00000000	          0.00000000	          0.00000000	          0.00000000	          0.00000000	          0.00000000	         19.06252646	        746.33444558	         67.10378346	         -0.41541178	          0.00000000	         -0.09590693	          0.00000000	          0.00000000	          0.00000000	          0.00000000	          1.27624082	          0.00000000	
          2.51800000	          0.00000000	          0.00000000	          0.00000000	          0.00000000	          0.00000000	          0.00000000	         19.38872796	        747.02653095	         67.37694074	         -0.41504924	          0.00000000	         -0.09599721	          0.00000000	          0.00000000	          0.00000000	          0.00000000	          1.28991149	          0.00000000	
          2.51900000	          0.00000000	          0.00000000	          0.00000000	          0.00000000	          0.00000000	          0.00000000	         19.74468859	        747.75896531	         67.65271670	         -0.41470035	          0.00000000	         -0.09611682	          0.00000000	          0.00000000	          0.00000000	          0.00000000	          1.29939948	          0.00000000	
          2.52000000	          0.00000000	          0.00000000	          0.00000000	          0.00000000	          0.00000000	          0.00000000	         20.13500103	        748.51770212	         67.92591033	         -0.41435114	          0.00000000	         -0.09624646	          0.00000000	          0.00000000	          0.00000000	          0.00000000	          1.30337883	          0.00000000	
          2.52100000	          0.00000000	          0.00000000	          0.00000000	          0.00000000	          0.00000000	          0.00000000	         20.55130152	        749.29221096	         68.18487287	         -0.41398316	          0.00000000	         -0.09636175	          0.00000000	          0.00000000	          0.00000000	          0.00000000	          1.30277416	          0.00000000	
          2.52200000	          0.00000000	          0.00000000	          0.00000000	          0.00000000	          0.00000000	          0.00000000	         20.98622712	        750.08028517	         68.42086655	         -0.41357743	          0.00000000	         -0.09645010	          0.00000000	          0.00000000	          0.00000000	          0.00000000	          1.30126313	          0.00000000	
          2.52300000	          0.00000000	          0.00000000	          0.00000000	          0.00000000	          0.00000000	          0.00000000	         21.43635442	        750.88235709	         68.63698520	         -0.41312386	          0.00000000	         -0.09651718	          0.00000000	          0.00000000	          0.00000000	          0.00000000	          1.30407448	          0.00000000	
          2.52400000	          0.00000000	          0.00000000	          0.00000000	          0.00000000	          0.00000000	          0.00000000	         21.89470583	        751.69667460	         68.84617854	         -0.41263095	          0.00000000	         -0.09657886	          0.00000000	          0.00000000	          0.00000000	          0.00000000	          1.31657488	          0.00000000	
          2.52500000	          0.00000000	          0.00000000	          0.00000000	          0.00000000	          0.00000000	          0.00000000	         22.34723520	        752.52614880	         69.06294263	         -0.41212551	          0.00000000	         -0.09665141	          0.00000000	          0.00000000	          0.00000000	          0.00000000	          1.34272489	          0.00000000	
          2.52600000	          0.00000000	          0.00000000	          0.00000000	          0.00000000	          0.00000000	          0.00000000	         22.78118018	        753.38350546	         69.29788966	         -0.41164294	          0.00000000	         -0.09674456	          0.00000000	          0.00000000	          0.00000000	          0.00000000	          1.38247547	          0.00000000	
          2.52700000	          0.00000000	          0.00000000	          0.00000000	          0.00000000	          0.00000000	          0.00000000	         23.19296810	        754.27198329	         69.55311854	         -0.41121135	          0.00000000	         -0.09685580	          0.00000000	          0.00000000	          0.00000000	          0.00000000	          1.42824690	          0.00000000	
          2.52800000	          0.00000000	          0.00000000	          0.00000000	          0.00000000	          0.00000000	          0.00000000	         23.58634845	        755.15497667	         69.81916578	         -0.41083951	          0.00000000	         -0.09697264	          0.00000000	          0.00000000	          0.00000000	          0.00000000	          1.46717322	          0.00000000	
